<svg version="1.1" id="Layer_1" xmlns="http://www.w3.org/2000/svg" xmlns:xlink="http://www.w3.org/1999/xlink" x="0px" y="0px"
	 width="100%" viewBox="0 0 150 150" enable-background="new 0 0 150 150" xml:space="preserve">
<path fill="#FFFFFF" opacity="1.000000" stroke="none" 
	d="
M92.000000,151.000000 
	C61.358486,151.000000 31.216972,151.000000 1.037730,151.000000 
	C1.037730,101.066872 1.037730,51.133701 1.037730,1.100266 
	C50.891285,1.100266 100.782837,1.100266 150.837189,1.100266 
	C150.837189,50.999569 150.837189,100.999741 150.837189,151.000000 
	C131.467392,151.000000 111.983696,151.000000 92.000000,151.000000 
M9.020924,103.988869 
	C9.520011,105.675507 9.928677,107.395233 10.532013,109.043716 
	C17.447407,127.938492 31.639006,137.286163 52.272610,137.861404 
	C66.319862,138.252991 80.427628,137.739044 94.465729,136.909210 
	C117.900764,135.523941 129.377777,109.165245 117.460854,89.280128 
	C115.783684,86.481522 115.818939,84.546440 116.510994,82.012207 
	C119.702461,70.325325 112.494484,54.101933 101.934158,48.351902 
	C89.261963,41.451962 72.984901,43.141720 63.307838,54.048187 
	C62.462189,55.001274 60.867722,55.810753 59.629845,55.798527 
	C55.730839,55.760036 51.837387,55.063908 47.939327,55.040966 
	C31.974472,54.946999 21.144255,63.431011 13.252555,76.414993 
	C8.240341,84.661446 8.859522,93.937241 9.020924,103.988869 
M80.000053,28.084007 
	C80.251152,31.576120 81.205231,34.622402 85.355789,34.970562 
	C89.733032,35.337730 91.600105,32.355247 91.860596,28.756752 
	C92.115250,25.238811 91.367111,21.646637 91.041046,18.088709 
	C90.614456,13.433810 86.940376,13.305777 84.082184,14.245633 
	C82.315155,14.826684 80.768181,17.632904 80.152832,19.740976 
	C79.481453,22.040995 80.000099,24.688383 80.000053,28.084007 
M44.761787,30.001436 
	C39.270775,32.760159 38.566582,35.761135 42.516720,40.012318 
	C44.651482,42.309769 46.631603,44.973370 49.242153,46.533825 
	C51.225975,47.719658 54.276363,48.109123 56.496731,47.517921 
	C57.708996,47.195137 58.869785,44.086510 58.843128,42.251827 
	C58.790306,38.615765 49.381161,30.352926 44.761787,30.001436 
M128.594284,30.962839 
	C126.051735,29.375881 123.822578,29.458246 121.663452,31.823380 
	C119.331284,34.378075 116.400810,36.461567 114.435760,39.247478 
	C113.308678,40.845367 112.909508,43.629986 113.465385,45.498798 
	C113.820618,46.693054 116.453163,47.675442 118.179550,47.910934 
	C123.847473,48.684090 125.546707,43.225201 128.908936,40.447464 
	C132.182739,37.742775 131.964706,34.332066 128.594284,30.962839 
M135.608826,81.000000 
	C137.931030,80.999863 140.614609,81.731567 142.481613,80.809608 
	C144.689056,79.719559 147.319061,77.360077 147.615829,75.248650 
	C147.825089,73.760025 144.695755,70.712494 142.624237,70.233780 
	C139.002609,69.396851 135.040878,69.854042 131.235016,70.040810 
	C127.251053,70.236313 125.165413,74.633186 126.983322,78.188171 
	C128.754532,81.651848 131.801788,80.951645 135.608826,81.000000 
z"/>
<path fill="#000000" opacity="1.000000" stroke="none" 
	d="
M9.011147,103.532104 
	C8.859522,93.937241 8.240341,84.661446 13.252555,76.414993 
	C21.144255,63.431011 31.974472,54.946999 47.939327,55.040966 
	C51.837387,55.063908 55.730839,55.760036 59.629845,55.798527 
	C60.867722,55.810753 62.462189,55.001274 63.307838,54.048187 
	C72.984901,43.141720 89.261963,41.451962 101.934158,48.351902 
	C112.494484,54.101933 119.702461,70.325325 116.510994,82.012207 
	C115.818939,84.546440 115.783684,86.481522 117.460854,89.280128 
	C129.377777,109.165245 117.900764,135.523941 94.465729,136.909210 
	C80.427628,137.739044 66.319862,138.252991 52.272610,137.861404 
	C31.639006,137.286163 17.447407,127.938492 10.532013,109.043716 
	C9.928677,107.395233 9.520011,105.675507 9.011147,103.532104 
M110.107780,101.603264 
	C106.735001,87.840744 94.019402,82.939468 79.373055,89.756462 
	C75.312706,70.568573 53.270683,59.024715 34.564590,70.212120 
	C23.087879,77.075912 16.822866,90.197037 21.153650,104.749924 
	C24.720552,116.735893 35.882103,126.126686 49.922642,126.020874 
	C62.916035,125.922943 75.954887,125.332260 88.892471,126.187592 
	C101.857925,127.044769 113.579514,115.247780 110.107780,101.603264 
M97.487862,75.996216 
	C100.207581,76.646729 102.927299,77.297241 105.671478,77.953606 
	C106.934631,68.364494 100.900352,59.766357 92.068245,56.537655 
	C85.913818,54.287823 76.953690,56.399849 73.073921,61.261589 
	C74.192131,62.159077 75.382217,62.979931 76.415077,63.965538 
	C82.111053,69.400917 86.303619,77.356491 96.218369,75.651199 
	C96.326500,75.632599 96.474480,75.845627 97.487862,75.996216 
z"/>
<path fill="#000000" opacity="1.000000" stroke="none" 
	d="
M80.000031,27.634178 
	C80.000099,24.688383 79.481453,22.040995 80.152832,19.740976 
	C80.768181,17.632904 82.315155,14.826684 84.082184,14.245633 
	C86.940376,13.305777 90.614456,13.433810 91.041046,18.088709 
	C91.367111,21.646637 92.115250,25.238811 91.860596,28.756752 
	C91.600105,32.355247 89.733032,35.337730 85.355789,34.970562 
	C81.205231,34.622402 80.251152,31.576120 80.000031,27.634178 
z"/>
<path fill="#000000" opacity="1.000000" stroke="none" 
	d="
M45.161995,30.000776 
	C49.381161,30.352926 58.790306,38.615765 58.843128,42.251827 
	C58.869785,44.086510 57.708996,47.195137 56.496731,47.517921 
	C54.276363,48.109123 51.225975,47.719658 49.242153,46.533825 
	C46.631603,44.973370 44.651482,42.309769 42.516720,40.012318 
	C38.566582,35.761135 39.270775,32.760159 45.161995,30.000776 
z"/>
<path fill="#000000" opacity="1.000000" stroke="none" 
	d="
M129.008133,31.004078 
	C131.964706,34.332066 132.182739,37.742775 128.908936,40.447464 
	C125.546707,43.225201 123.847473,48.684090 118.179550,47.910934 
	C116.453163,47.675442 113.820618,46.693054 113.465385,45.498798 
	C112.909508,43.629986 113.308678,40.845367 114.435760,39.247478 
	C116.400810,36.461567 119.331284,34.378075 121.663452,31.823380 
	C123.822578,29.458246 126.051735,29.375881 129.008133,31.004078 
z"/>
<path fill="#000000" opacity="1.000000" stroke="none" 
	d="
M135.148254,81.000000 
	C131.801788,80.951645 128.754532,81.651848 126.983322,78.188171 
	C125.165413,74.633186 127.251053,70.236313 131.235016,70.040810 
	C135.040878,69.854042 139.002609,69.396851 142.624237,70.233780 
	C144.695755,70.712494 147.825089,73.760025 147.615829,75.248650 
	C147.319061,77.360077 144.689056,79.719559 142.481613,80.809608 
	C140.614609,81.731567 137.931030,80.999863 135.148254,81.000000 
z"/>
<path fill="#FFFFFF" opacity="1.000000" stroke="none" 
	d="
M110.415176,101.899063 
	C113.579514,115.247780 101.857925,127.044769 88.892471,126.187592 
	C75.954887,125.332260 62.916035,125.922943 49.922642,126.020874 
	C35.882103,126.126686 24.720552,116.735893 21.153650,104.749924 
	C16.822866,90.197037 23.087879,77.075912 34.564590,70.212120 
	C53.270683,59.024715 75.312706,70.568573 79.373055,89.756462 
	C94.019402,82.939468 106.735001,87.840744 110.415176,101.899063 
z"/>
<path fill="#FFFFFF" opacity="1.000000" stroke="none" 
	d="
M97.045860,75.973373 
	C96.474480,75.845627 96.326500,75.632599 96.218369,75.651199 
	C86.303619,77.356491 82.111053,69.400917 76.415077,63.965538 
	C75.382217,62.979931 74.192131,62.159077 73.073921,61.261589 
	C76.953690,56.399849 85.913818,54.287823 92.068245,56.537655 
	C100.900352,59.766357 106.934631,68.364494 105.671478,77.953606 
	C102.927299,77.297241 100.207581,76.646729 97.045860,75.973373 
z"/>
</svg>